# xmcd
#
# Track frame offsets: 
#        150
#        10500
#        21377
#        33721
#        45958
#        55771
#        65703
#        73988
#        83832
#        93617
#        105536
#        115714
#        125833
#        136855
#        146292
#        159886
#        172597
#        185051
#        196110
#        205774
#        217802
#        225434
#        236716
#        248358
#        260619
#        271532
#        281298
#        291894
#        302571
#        311454
#        321444
#        329822
#        337204
#        345260
#        347082
#        348848
#
# Disc length: 4671 seconds
#
# Revision: 0
# Processed by: cddbd v1.5.2PL0 Copyright (c) Steve Scherf et al.
# Submitted via: ExactAudioCopyFreeDBPlugin 1.0
#
DISCID=04123d24
DTITLE=George Jones - Birth Of A Legend 1954-1961 [CD2]
DYEAR=2017
DGENRE=Country
TTITLE0=I'm Ragged But I'm Right (alt)
TTITLE1=You Gotta Be My Baby (take 1)
TTITLE2=You Gotta Be My Baby (take 2)
TTITLE3=You Gotta Be My Baby (take 3)
TTITLE4=I've Got Five Dollars And It's Saturday Night
TTITLE5=Run Boy
TTITLE6=Heartbreak Hotel (short ending)
TTITLE7=Yes I Know Why
TTITLE8='Cause I Love You
TTITLE9=You Gotta Be My Baby
TTITLE10=Rock It
TTITLE11=Rock It (alt)
TTITLE12=How Come It
TTITLE13=Boat Of Life
TTITLE14=Taggin' Along
TTITLE15=Yearning (& Jeanette Hicks)
TTITLE16=Yearning (alt) (& Jeanette Hicks)
TTITLE17=I'm With The Wrong One (& Jeanette Hicks)
TTITLE18=Sweet Dreams
TTITLE19=I Take The Chance (& Jeanette Hicks)
TTITLE20=Any Old Time
TTITLE21=Gonna Come Get You
TTITLE22=Gonna Come Get You (alt)
TTITLE23=Just One More
TTITLE24=No Money In This Deal
TTITLE25=I'm With The Wrong One (edit) (& Jeanette Hicks)
TTITLE26=I'm With The Wrong One (& Jeanette Hicks)
TTITLE27=You're Running Wild
TTITLE28=Singing The Blues
TTITLE29=Wasted Words
TTITLE30=One Woman Man
TTITLE31=Before I Met You
TTITLE32=Go Away With Me
TTITLE33=Radio Spot 1, 1956
TTITLE34=Radio Spot 2, 1956
TTITLE35=Radio Spot 3, 1956
EXTD=
EXTT0=
EXTT1=
EXTT2=
EXTT3=
EXTT4=
EXTT5=
EXTT6=
EXTT7=
EXTT8=
EXTT9=
EXTT10=
EXTT11=
EXTT12=
EXTT13=
EXTT14=
EXTT15=
EXTT16=
EXTT17=
EXTT18=
EXTT19=
EXTT20=
EXTT21=
EXTT22=
EXTT23=
EXTT24=
EXTT25=
EXTT26=
EXTT27=
EXTT28=
EXTT29=
EXTT30=
EXTT31=
EXTT32=
EXTT33=
EXTT34=
EXTT35=
PLAYORDER=
